%TF.GenerationSoftware,KiCad,Pcbnew,6.0.11-2627ca5db0~126~ubuntu20.04.1*%
%TF.CreationDate,2023-03-20T00:40:24-03:00*%
%TF.ProjectId,drive-l297,64726976-652d-46c3-9239-372e6b696361,rev?*%
%TF.SameCoordinates,Original*%
%TF.FileFunction,Legend,Top*%
%TF.FilePolarity,Positive*%
%FSLAX46Y46*%
G04 Gerber Fmt 4.6, Leading zero omitted, Abs format (unit mm)*
G04 Created by KiCad (PCBNEW 6.0.11-2627ca5db0~126~ubuntu20.04.1) date 2023-03-20 00:40:24*
%MOMM*%
%LPD*%
G01*
G04 APERTURE LIST*
%ADD10C,0.150000*%
%ADD11C,0.120000*%
G04 APERTURE END LIST*
D10*
%TO.C,U2*%
X119126095Y-77320380D02*
X119126095Y-78129904D01*
X119173714Y-78225142D01*
X119221333Y-78272761D01*
X119316571Y-78320380D01*
X119507047Y-78320380D01*
X119602285Y-78272761D01*
X119649904Y-78225142D01*
X119697523Y-78129904D01*
X119697523Y-77320380D01*
X120126095Y-77415619D02*
X120173714Y-77368000D01*
X120268952Y-77320380D01*
X120507047Y-77320380D01*
X120602285Y-77368000D01*
X120649904Y-77415619D01*
X120697523Y-77510857D01*
X120697523Y-77606095D01*
X120649904Y-77748952D01*
X120078476Y-78320380D01*
X120697523Y-78320380D01*
%TO.C,U1*%
X141986095Y-76404380D02*
X141986095Y-77213904D01*
X142033714Y-77309142D01*
X142081333Y-77356761D01*
X142176571Y-77404380D01*
X142367047Y-77404380D01*
X142462285Y-77356761D01*
X142509904Y-77309142D01*
X142557523Y-77213904D01*
X142557523Y-76404380D01*
X143557523Y-77404380D02*
X142986095Y-77404380D01*
X143271809Y-77404380D02*
X143271809Y-76404380D01*
X143176571Y-76547238D01*
X143081333Y-76642476D01*
X142986095Y-76690095D01*
D11*
%TO.C,U2*%
X114288000Y-94918000D02*
X114288000Y-93168000D01*
X125488000Y-78818000D02*
X121888000Y-78818000D01*
X114288000Y-78818000D02*
X114288000Y-80568000D01*
X125488000Y-78818000D02*
X125488000Y-80568000D01*
X117888000Y-78818000D02*
X114288000Y-78818000D01*
X117888000Y-94918000D02*
X114288000Y-94918000D01*
X114288000Y-80568000D02*
X112288000Y-80568000D01*
X125488000Y-94918000D02*
X125488000Y-93168000D01*
X125488000Y-94918000D02*
X121888000Y-94918000D01*
%TO.C,U1*%
X137148000Y-77802000D02*
X137148000Y-79552000D01*
X148348000Y-77802000D02*
X137148000Y-77802000D01*
X137148000Y-79552000D02*
X135148000Y-79552000D01*
X148348000Y-77802000D02*
X148348000Y-79552000D01*
X148348000Y-93902000D02*
X148348000Y-92152000D01*
X148348000Y-93902000D02*
X137148000Y-93902000D01*
X137148000Y-93902000D02*
X137148000Y-92152000D01*
%TD*%
M02*
